<?xml version="1.0" encoding="utf-8"?>
<!-- Generator: Adobe Illustrator 23.0.1, SVG Export Plug-In . SVG Version: 6.00 Build 0)  -->
<svg version="1.1" id="Camada_1" xmlns="http://www.w3.org/2000/svg" xmlns:xlink="http://www.w3.org/1999/xlink" x="0px" y="0px"
	 viewBox="0 0 300 300" style="enable-background:new 0 0 300 300;" xml:space="preserve">
<style type="text/css">
	.st0{display:none;}
	.st1{display:inline;fill-rule:evenodd;clip-rule:evenodd;fill:#8C9831;}
	.st2{display:inline;fill:#8C9831;}
	.st3{fill:#8C9831;}
	.st4{fill-rule:evenodd;clip-rule:evenodd;fill:#8C9831;}
</style>
<g class="st0">
	<path class="st1" d="M300.01,146.65c0,80.43-65.71,145.64-146.78,145.64c-25.74,0-49.93-6.57-70.95-18.12L1.01,300l26.49-78.14
		c-13.37-21.95-21.05-47.69-21.05-75.21C6.44,66.21,72.16,1,153.23,1C234.29,1,300.01,66.21,300.01,146.65L300.01,146.65z
		 M153.23,24.2c-68.06,0-123.41,54.92-123.41,122.46c0,26.78,8.72,51.6,23.5,71.8l-15.41,45.47l47.42-15.07
		c19.48,12.78,42.82,20.24,67.9,20.24c68.04,0,123.4-54.93,123.4-122.44C276.63,79.12,221.27,24.2,153.23,24.2L153.23,24.2z
		 M227.35,180.2c-0.91-1.49-3.31-2.38-6.89-4.17c-3.6-1.78-21.3-10.43-24.59-11.61c-3.29-1.19-5.71-1.79-8.09,1.78
		c-2.4,3.57-9.3,11.62-11.4,14c-2.09,2.39-4.19,2.68-7.79,0.89c-3.6-1.78-15.2-5.56-28.94-17.71
		c-10.69-9.48-17.91-21.15-20.02-24.73c-2.09-3.57-0.21-5.5,1.57-7.28c1.62-1.61,3.6-4.17,5.4-6.25c1.8-2.09,2.4-3.59,3.6-5.97
		c1.2-2.38,0.6-4.46-0.31-6.25c-0.89-1.78-8.09-19.35-11.1-26.51c-2.98-7.13-5.98-5.95-8.09-5.95c-2.09,0-4.49-0.29-6.89-0.29
		c-2.4,0-6.3,0.89-9.59,4.46c-3.29,3.57-12.59,12.21-12.59,29.77c0,17.57,12.88,34.55,14.68,36.92c1.8,2.39,24.88,39.61,61.47,53.91
		c36.58,14.29,36.58,9.52,43.18,8.92c6.59-0.58,21.28-8.63,24.29-16.97C228.24,188.83,228.24,181.68,227.35,180.2L227.35,180.2z
		 M227.35,180.2"/>
</g>
<g class="st0">
	<path class="st2" d="M276.56,264.84c0,6.46-5.26,11.72-11.72,11.72h-66.8v-95.51h36.21l5.98-36.33h-42.19v-25.2
		c0-9.95,7.63-17.58,17.58-17.58h24.02V65.63h-24.02c-29.84,0-53.89,24.17-53.89,54.01v25.09h-35.17v36.33h35.17v95.51H35.16
		c-6.46,0-11.72-5.26-11.72-11.72V35.16c0-6.46,5.26-11.72,11.72-11.72h229.69c6.46,0,11.72,5.26,11.72,11.72V264.84L276.56,264.84z
		 M264.84,0H35.16C15.77,0,0,15.77,0,35.16v229.69C0,284.23,15.77,300,35.16,300h229.69c19.39,0,35.16-15.77,35.16-35.16V35.16
		C300,15.77,284.23,0,264.84,0L264.84,0z"/>
</g>
<g class="st0">
	<path class="st2" d="M217.21,0H82.79C37.14,0,0,37.14,0,82.79v134.42C0,262.86,37.14,300,82.79,300h134.42
		c45.65,0,82.79-37.14,82.79-82.79V82.79C300,37.14,262.86,0,217.21,0L217.21,0z M273.38,217.21c0,30.98-25.2,56.17-56.17,56.17
		H82.79c-30.98,0-56.17-25.2-56.17-56.17V82.79c0-30.98,25.2-56.17,56.17-56.17h134.42c30.98,0,56.17,25.2,56.17,56.17V217.21z
		 M273.38,217.21"/>
	<path class="st2" d="M150,72.71c-42.63,0-77.31,34.68-77.31,77.29c0,42.63,34.68,77.31,77.31,77.31
		c42.62,0,77.31-34.68,77.31-77.31C227.31,107.38,192.62,72.71,150,72.71L150,72.71z M150,200.68c-27.94,0-50.69-22.73-50.69-50.68
		c0-27.94,22.74-50.69,50.69-50.69s50.69,22.74,50.69,50.69C200.69,177.95,177.94,200.68,150,200.68L150,200.68z M150,200.68"/>
	<path class="st2" d="M230.55,50.13c-5.13,0-10.17,2.07-13.79,5.71c-3.65,3.62-5.74,8.66-5.74,13.81c0,5.13,2.1,10.16,5.74,13.8
		c3.61,3.62,8.66,5.71,13.79,5.71c5.15,0,10.16-2.09,13.8-5.71c3.64-3.64,5.72-8.68,5.72-13.8c0-5.15-2.08-10.19-5.72-13.81
		C240.73,52.21,235.69,50.13,230.55,50.13L230.55,50.13z M230.55,50.13"/>
</g>
<g>
	<g>
		<path class="st3" d="M300,76.58c0-6.4-2.55-12.2-6.57-16.62c-0.08-0.07-0.1-0.17-0.16-0.28c-0.07-0.07-0.17-0.1-0.25-0.17
			c-4.57-4.8-11.04-7.83-18.23-7.83H25.21c-7.2,0-13.66,3.03-18.26,7.83c-0.08,0.08-0.17,0.1-0.23,0.2
			c-0.08,0.08-0.1,0.18-0.15,0.28C2.53,64.4,0,70.18,0,76.58V223.4c0,6.56,2.63,12.5,6.85,16.95c0.07,0.1,0.1,0.2,0.2,0.3
			c0.03,0.03,0.08,0.03,0.1,0.07c4.57,4.68,10.97,7.6,18.06,7.6h249.58c7.07,0,13.46-2.93,18.06-7.62c0.03-0.03,0.08-0.03,0.1-0.05
			c0.07-0.08,0.1-0.2,0.2-0.28c4.22-4.47,6.85-10.41,6.85-16.97V76.58z M201.79,142.25l86.46-71.68c0.83,1.84,1.34,3.87,1.34,6.01
			V223.4c0,1.95-0.4,3.79-1.09,5.5L201.79,142.25z M274.79,61.95c2.17,0,4.22,0.48,6.09,1.31l-130.9,108.51L19.12,63.26
			c1.87-0.83,3.91-1.31,6.08-1.31H274.79z M11.49,228.91c-0.7-1.71-1.11-3.56-1.11-5.5V76.58c0-2.15,0.51-4.17,1.36-6.01
			l86.47,71.68L11.49,228.91z M25.21,238.05c-2.4,0-4.62-0.63-6.64-1.62l87.62-87.57l40.47,33.55c0.96,0.81,2.15,1.21,3.33,1.21
			c1.19,0,2.37-0.4,3.34-1.21l40.49-33.55l87.62,87.57c-2.02,0.99-4.24,1.62-6.64,1.62H25.21z M25.21,238.05"/>
	</g>
	<g>
		<path class="st4" d="M300,76.58c0-6.4-2.55-12.2-6.57-16.62c-0.08-0.07-0.1-0.17-0.16-0.28c-0.07-0.07-0.17-0.1-0.25-0.17
			c-4.57-4.8-11.04-7.83-18.23-7.83H25.21c-7.2,0-13.66,3.03-18.26,7.83c-0.08,0.08-0.17,0.1-0.23,0.2
			c-0.08,0.08-0.1,0.18-0.15,0.28C2.53,64.4,0,70.18,0,76.58V223.4c0,6.56,2.63,12.5,6.85,16.95c0.07,0.1,0.1,0.2,0.2,0.3
			c0.03,0.03,0.08,0.03,0.1,0.07c4.57,4.68,10.97,7.6,18.06,7.6h249.58c7.07,0,13.46-2.93,18.06-7.62c0.03-0.03,0.08-0.03,0.1-0.05
			c0.07-0.08,0.1-0.2,0.2-0.28c4.22-4.47,6.85-10.41,6.85-16.97V76.58z M201.79,142.25l86.46-71.68c0.83,1.84,1.34,3.87,1.34,6.01
			V223.4c0,1.95-0.4,3.79-1.09,5.5L201.79,142.25z M274.79,61.95c2.17,0,4.22,0.48,6.09,1.31l-130.9,108.51L19.12,63.26
			c1.87-0.83,3.91-1.31,6.08-1.31H274.79z M11.49,228.91c-0.7-1.71-1.11-3.56-1.11-5.5V76.58c0-2.15,0.51-4.17,1.36-6.01
			l86.47,71.68L11.49,228.91z M25.21,238.05c-2.4,0-4.62-0.63-6.64-1.62l87.62-87.57l40.47,33.55c0.96,0.81,2.15,1.21,3.33,1.21
			c1.19,0,2.37-0.4,3.34-1.21l40.49-33.55l87.62,87.57c-2.02,0.99-4.24,1.62-6.64,1.62H25.21z M25.21,238.05"/>
	</g>
</g>
</svg>
