<?xml version="1.0" encoding="utf-8"?>
<!-- Generator: Adobe Illustrator 23.0.1, SVG Export Plug-In . SVG Version: 6.00 Build 0)  -->
<svg version="1.1" id="Camada_1" xmlns="http://www.w3.org/2000/svg" xmlns:xlink="http://www.w3.org/1999/xlink" x="0px" y="0px"
	 viewBox="0 0 300 300" style="enable-background:new 0 0 300 300;" xml:space="preserve">
<style type="text/css">
	.st0{display:none;}
	.st1{display:inline;fill-rule:evenodd;clip-rule:evenodd;fill:#8C9831;}
	.st2{fill:#8C9831;}
	.st3{display:inline;fill:#8C9831;}
	.st4{display:inline;}
	.st5{fill-rule:evenodd;clip-rule:evenodd;fill:#8C9831;}
</style>
<g class="st0">
	<path class="st1" d="M300.01,146.65c0,80.43-65.71,145.64-146.78,145.64c-25.74,0-49.93-6.57-70.95-18.12L1.01,300l26.49-78.14
		c-13.37-21.95-21.05-47.69-21.05-75.21C6.44,66.21,72.16,1,153.23,1C234.29,1,300.01,66.21,300.01,146.65L300.01,146.65z
		 M153.23,24.2c-68.06,0-123.41,54.92-123.41,122.46c0,26.78,8.72,51.6,23.5,71.8l-15.41,45.47l47.42-15.07
		c19.48,12.78,42.82,20.24,67.9,20.24c68.04,0,123.4-54.93,123.4-122.44C276.63,79.12,221.27,24.2,153.23,24.2L153.23,24.2z
		 M227.35,180.2c-0.91-1.49-3.31-2.38-6.89-4.17c-3.6-1.78-21.3-10.43-24.59-11.61c-3.29-1.19-5.71-1.79-8.09,1.78
		c-2.4,3.57-9.3,11.62-11.4,14c-2.09,2.39-4.19,2.68-7.79,0.89c-3.6-1.78-15.2-5.56-28.94-17.71
		c-10.69-9.48-17.91-21.15-20.02-24.73c-2.09-3.57-0.21-5.5,1.57-7.28c1.62-1.61,3.6-4.17,5.4-6.25c1.8-2.09,2.4-3.59,3.6-5.97
		c1.2-2.38,0.6-4.46-0.31-6.25c-0.89-1.78-8.09-19.35-11.1-26.51c-2.98-7.13-5.98-5.95-8.09-5.95c-2.09,0-4.49-0.29-6.89-0.29
		c-2.4,0-6.3,0.89-9.59,4.46c-3.29,3.57-12.59,12.21-12.59,29.77c0,17.57,12.88,34.55,14.68,36.92c1.8,2.39,24.88,39.61,61.47,53.91
		c36.58,14.29,36.58,9.52,43.18,8.92c6.59-0.58,21.28-8.63,24.29-16.97C228.24,188.83,228.24,181.68,227.35,180.2L227.35,180.2z
		 M227.35,180.2"/>
</g>
<g>
	<path class="st2" d="M276.56,264.84c0,6.46-5.26,11.72-11.72,11.72h-66.8v-95.51h36.21l5.98-36.33h-42.19v-25.2
		c0-9.95,7.63-17.58,17.58-17.58h24.02V65.63h-24.02c-29.84,0-53.89,24.17-53.89,54.01v25.09h-35.17v36.33h35.17v95.51H35.16
		c-6.46,0-11.72-5.26-11.72-11.72V35.16c0-6.46,5.26-11.72,11.72-11.72h229.69c6.46,0,11.72,5.26,11.72,11.72V264.84L276.56,264.84z
		 M264.84,0H35.16C15.77,0,0,15.77,0,35.16v229.69C0,284.23,15.77,300,35.16,300h229.69c19.39,0,35.16-15.77,35.16-35.16V35.16
		C300,15.77,284.23,0,264.84,0L264.84,0z"/>
</g>
<g class="st0">
	<path class="st3" d="M188.85,194.65h-32.51c-11.04,0-20.02,8.98-20.02,20.02v32.51c0,11.04,8.98,20.02,20.02,20.02h32.51
		c11.04,0,20.02-8.98,20.02-20.02v-32.51C208.87,203.64,199.89,194.65,188.85,194.65L188.85,194.65z M202.43,247.18
		c0,7.49-6.09,13.58-13.58,13.58h-32.51c-7.49,0-13.58-6.09-13.58-13.58v-32.51c0-7.49,6.09-13.58,13.58-13.58h32.51
		c7.49,0,13.58,6.09,13.58,13.58V247.18z M202.43,247.18"/>
	<path class="st3" d="M172.59,212.24c-10.31,0-18.69,8.39-18.69,18.69c0,10.31,8.39,18.69,18.69,18.69
		c10.31,0,18.69-8.39,18.69-18.69C191.29,220.62,182.9,212.24,172.59,212.24L172.59,212.24z M172.59,243.18
		c-6.76,0-12.26-5.5-12.26-12.26c0-6.76,5.5-12.26,12.26-12.26c6.76,0,12.26,5.5,12.26,12.26
		C184.85,237.69,179.35,243.18,172.59,243.18L172.59,243.18z M172.59,243.18"/>
	<path class="st3" d="M192.07,206.78c-1.24,0-2.46,0.5-3.33,1.38c-0.88,0.88-1.39,2.1-1.39,3.34c0,1.24,0.51,2.46,1.39,3.34
		c0.87,0.88,2.09,1.38,3.33,1.38c1.24,0,2.46-0.51,3.34-1.38c0.88-0.88,1.38-2.1,1.38-3.34c0-1.24-0.5-2.46-1.38-3.34
		C194.53,207.28,193.32,206.78,192.07,206.78L192.07,206.78z M192.07,206.78"/>
</g>
<g class="st0">
	<g class="st4">
		<path class="st2" d="M151.72,58.85c0-1.84-0.74-3.51-1.89-4.79c-0.02-0.02-0.03-0.05-0.04-0.08c-0.02-0.02-0.05-0.03-0.07-0.05
			c-1.32-1.38-3.18-2.26-5.25-2.26H72.58c-2.07,0-3.94,0.87-5.26,2.26c-0.02,0.02-0.05,0.03-0.07,0.06
			c-0.02,0.02-0.03,0.05-0.04,0.08c-1.16,1.27-1.89,2.94-1.89,4.78v42.29c0,1.89,0.76,3.6,1.97,4.88c0.02,0.03,0.03,0.06,0.06,0.09
			c0.01,0.01,0.02,0.01,0.03,0.02c1.32,1.35,3.16,2.19,5.2,2.19h71.88c2.04,0,3.88-0.84,5.2-2.2c0.01-0.01,0.02-0.01,0.03-0.01
			c0.02-0.02,0.03-0.06,0.06-0.08c1.21-1.29,1.97-3,1.97-4.89V58.85z M123.44,77.76l24.9-20.65c0.24,0.53,0.39,1.11,0.39,1.73v42.29
			c0,0.56-0.12,1.09-0.31,1.58L123.44,77.76z M144.46,54.64c0.63,0,1.21,0.14,1.75,0.38l-37.7,31.25L70.83,55.01
			c0.54-0.24,1.13-0.38,1.75-0.38H144.46z M68.63,102.72c-0.2-0.49-0.32-1.02-0.32-1.58V58.85c0-0.62,0.15-1.2,0.39-1.73l24.9,20.65
			L68.63,102.72z M72.58,105.36c-0.69,0-1.33-0.18-1.91-0.47L95.9,79.67l11.65,9.66c0.28,0.23,0.62,0.35,0.96,0.35
			c0.34,0,0.68-0.12,0.96-0.35l11.66-9.66l25.23,25.22c-0.58,0.28-1.22,0.47-1.91,0.47H72.58z M72.58,105.36"/>
	</g>
	<g class="st4">
		<path class="st5" d="M151.72,58.85c0-1.84-0.74-3.51-1.89-4.79c-0.02-0.02-0.03-0.05-0.04-0.08c-0.02-0.02-0.05-0.03-0.07-0.05
			c-1.32-1.38-3.18-2.26-5.25-2.26H72.58c-2.07,0-3.94,0.87-5.26,2.26c-0.02,0.02-0.05,0.03-0.07,0.06
			c-0.02,0.02-0.03,0.05-0.04,0.08c-1.16,1.27-1.89,2.94-1.89,4.78v42.29c0,1.89,0.76,3.6,1.97,4.88c0.02,0.03,0.03,0.06,0.06,0.09
			c0.01,0.01,0.02,0.01,0.03,0.02c1.32,1.35,3.16,2.19,5.2,2.19h71.88c2.04,0,3.88-0.84,5.2-2.2c0.01-0.01,0.02-0.01,0.03-0.01
			c0.02-0.02,0.03-0.06,0.06-0.08c1.21-1.29,1.97-3,1.97-4.89V58.85z M123.44,77.76l24.9-20.65c0.24,0.53,0.39,1.11,0.39,1.73v42.29
			c0,0.56-0.12,1.09-0.31,1.58L123.44,77.76z M144.46,54.64c0.63,0,1.21,0.14,1.75,0.38l-37.7,31.25L70.83,55.01
			c0.54-0.24,1.13-0.38,1.75-0.38H144.46z M68.63,102.72c-0.2-0.49-0.32-1.02-0.32-1.58V58.85c0-0.62,0.15-1.2,0.39-1.73l24.9,20.65
			L68.63,102.72z M72.58,105.36c-0.69,0-1.33-0.18-1.91-0.47L95.9,79.67l11.65,9.66c0.28,0.23,0.62,0.35,0.96,0.35
			c0.34,0,0.68-0.12,0.96-0.35l11.66-9.66l25.23,25.22c-0.58,0.28-1.22,0.47-1.91,0.47H72.58z M72.58,105.36"/>
	</g>
</g>
</svg>
